<svg width="32" height="32" viewBox="0 0 132 132" xmlns="http://www.w3.org/2000/svg">
  <circle cx="66" cy="66" r="66" fill="#E84142"></circle>
  <path d="M61.29 43.996c1.9-3.353 5.386-3.328 7.26 0l19.627 34.628c1.873 3.353.349 6.098-3.375 6.098H44.916c-3.724 0-5.248-2.745-3.375-6.098L61.29 43.996zm1.598 9.212l-13.16 23.23c-.705 1.244-.13 2.283 1.286 2.283h23.75c1.416 0 1.99-1.039 1.286-2.283L62.887 53.208zm20.668 35.246c1.902-3.354 5.387-3.328 7.26 0l7.248 12.78c1.873 3.353.349 6.098-3.375 6.098H70.445c-3.724 0-5.248-2.745-3.375-6.098l7.248-12.78z" fill="#fff"></path>
</svg>
