<svg viewBox="0 0 2500 2500" xmlns="http://www.w3.org/2000/svg" width="32" height="32">
  <path d="M1249.998 0l239.264 239.272-744.68 744.672-239.272-239.264L1249.998 0zm995.418 995.422l239.272 239.27-995.418 995.406-239.27-239.268 995.416-995.408zM514.58 1493.85l239.268 239.27-239.268 239.27-239.27-239.27 239.27-239.27zm1531.84 0l239.27 239.27-239.27 239.27-239.27-239.27 239.27-239.27zM1249.998 2500l-239.27-239.27 744.672-744.68 239.27 239.27L1249.998 2500zm-995.418-995.422l-239.27-239.27L1010.728 270.91l239.27 239.27-995.418 995.398zm239.27-239.27l239.27 239.27 511.15-511.15-239.27-239.27-511.15 511.15zm995.418 0l239.27 239.27-511.15 511.15-239.27-239.27 511.15-511.15z" fill="#F0B90B"></path>
</svg>
