<svg width="40" height="40" viewBox="0 0 32 32" fill="#f7931a" xmlns="http://www.w3.org/2000/svg">
  <path d="M16 0C7.16406 0 0 7.16406 0 16C0 24.8359 7.16406 32 16 32C24.8359 32 32 24.8359 32 16C32 7.16406 24.8359 0 16 0ZM17.75 24.5938V26.3438H14.75V24.6094C13.7422 24.5703 12.6797 24.3594 11.8125 24.0234L12.4375 21.9531C13.2891 22.2969 14.332 22.5781 15.3984 22.6172V20.6484C12.9922 20.1953 11.4531 18.9141 11.4531 16.6719C11.4531 14.6406 12.8828 13.3359 15.1875 13.1484V11.4688H17.1797V13.0781C18.1289 13.1328 18.9492 13.2891 19.6992 13.5312L19.1016 15.5469C18.332 15.2578 17.5312 15.0938 16.7031 15.0547V17.1641C19.3125 17.6328 20.8047 18.7891 20.8047 20.8359C20.8047 22.7969 19.2852 24.1953 17.75 24.5938Z"></path>
</svg>
