<svg viewBox="0 0 38 33" xmlns="http://www.w3.org/2000/svg" width="32" height="32">
  <path d="M28.464 2.297a4.725 4.725 0 0 1 4.728 0l3.367 1.944a4.724 4.724 0 0 1 2.364 4.096v9.763a4.724 4.724 0 0 1-2.364 4.096l-3.367 1.944a4.725 4.725 0 0 1-4.728 0l-3.355-1.938a4.724 4.724 0 0 1-2.364-4.096v-2.14l-8.12-4.69-2.903 1.67v4.3a4.724 4.724 0 0 1-2.364 4.096l-3.355 1.938a4.725 4.725 0 0 1-4.728 0L.879 21.196A4.724 4.724 0 0 1-1.485 17.1V7.338a4.724 4.724 0 0 1 2.364-4.096L4.246 1.3a4.725 4.725 0 0 1 4.728 0l3.355 1.938a4.724 4.724 0 0 1 2.364 4.096v2.14l8.12 4.69 2.903-1.67V6.393a4.724 4.724 0 0 1 2.364-4.096ZM25.561 20.47l3.355 1.938a1.575 1.575 0 0 0 1.573 0l3.355-1.938a1.575 1.575 0 0 0 .787-1.362V9.344a1.575 1.575 0 0 0-.787-1.362l-3.355-1.938a1.575 1.575 0 0 0-1.573 0l-3.355 1.938a1.575 1.575 0 0 0-.787 1.362v4.3l-5.997 3.464v6.074a1.575 1.575 0 0 0 .787 1.362Zm-18.218 0 3.355-1.938a1.575 1.575 0 0 0 .787-1.362V12.14l5.997-3.464V2.603a1.575 1.575 0 0 0-.787-1.362L13.44.303a1.575 1.575 0 0 0-1.573 0L8.512 2.24a1.575 1.575 0 0 0-.787 1.362v4.3l-2.903 1.67v6.074a1.575 1.575 0 0 0 .787 1.362Z" fill="#8247E5"></path>
</svg>
